<svg width="138" height="65" viewBox="0 0 138 65" fill="none" xmlns="http://www.w3.org/2000/svg">
<path d="M112.974 32.727C112.974 36.7543 109.709 40.019 105.682 40.019L105.682 25.4349C109.709 25.4349 112.974 28.6997 112.974 32.727Z" fill="#0041D0"/>
<path d="M98.3906 32.7271C98.3906 28.6998 101.655 25.4351 105.683 25.4351L105.683 32.7271L105.683 40.0192C101.655 40.0192 98.3906 36.7544 98.3906 32.7271Z" fill="#86ABFF"/>
<g clip-path="url(#clip0)">
<rect width="14.5842" height="14.5842" transform="translate(64.1729 40.019) rotate(-180)" fill="white"/>
<path d="M64.173 25.4351H49.5889V40.0192L64.173 25.4351Z" fill="#FF0072"/>
<path d="M49.5887 40.019L64.1729 40.019L64.1729 25.4349L49.5887 40.019Z" fill="#FF99C6"/>
</g>
<g clip-path="url(#clip1)">
<path opacity="0.1" d="M0.788085 25.4349L0.788086 40.019L15.3723 40.019L0.788085 25.4349Z" fill="#1A192B"/>
</g>
<g clip-path="url(#clip2)">
<path opacity="0.1" d="M15.3721 15.3727L15.3721 0.788574L0.787904 0.788574L15.3721 15.3727Z" fill="#1A192B"/>
</g>
<g clip-path="url(#clip3)">
<path opacity="0.1" d="M50.082 0.788392L50.082 15.3726L64.6662 15.3726L50.082 0.788392Z" fill="#1A192B"/>
</g>
<g clip-path="url(#clip4)">
<path opacity="0.1" d="M89.3135 15.3727L89.3135 0.788574L74.7293 0.788574L89.3135 15.3727Z" fill="#1A192B"/>
</g>
<g clip-path="url(#clip5)">
<path opacity="0.1" d="M113.959 0.788574L99.375 0.788574L99.375 15.3727L113.959 0.788574Z" fill="#1A192B"/>
</g>
<g clip-path="url(#clip6)">
<path d="M40.0187 40.019L25.4346 40.019L25.4346 25.4349L40.0187 40.019Z" fill="#FFC299"/>
<path d="M40.0186 25.4349L40.0186 40.019L25.4344 40.019L40.0186 25.4349Z" fill="#FF6700"/>
</g>
<path d="M40.0187 40.019L25.4346 40.019L25.4346 25.4349L40.0187 40.019Z" fill="#FFC299"/>
<path d="M40.0186 25.4349L40.0186 40.019L25.4344 40.019L40.0186 25.4349Z" fill="#FF6700"/>
<path d="M82.322 25.5493L88.5316 40.0195H76.1123L82.322 25.5493Z" fill="#00D7CA"/>
<path d="M78.6188 29.0811L83.2902 40.0192H73.9473L78.6188 29.0811Z" fill="#88FFF7"/>
<path opacity="0.1" d="M137.621 40.0192L137.621 25.4351L123.037 25.4351L137.621 40.0192Z" fill="#1A192B"/>
<path opacity="0.1" d="M98.3895 64.666L112.974 64.666L112.974 50.0818L98.3895 64.666Z" fill="#1A192B"/>
<path opacity="0.1" d="M40.0187 50.082L25.4346 50.082L25.4346 64.6662L40.0187 50.082Z" fill="#1A192B"/>
<path opacity="0.1" d="M88.3262 64.6662L88.3262 50.082L73.742 50.082L88.3262 64.6662Z" fill="#1A192B"/>
<path opacity="0.1" d="M137.621 64.6662L137.621 50.082L123.037 50.082L137.621 64.6662Z" fill="#1A192B"/>
<path opacity="0.1" d="M15.3723 50.082L0.788086 50.082L0.788086 64.6662L15.3723 50.082Z" fill="#1A192B"/>
<circle opacity="0.1" cx="32.5822" cy="7.93619" r="7.14762" fill="#1A192B"/>
<circle opacity="0.1" cx="130.184" cy="7.93619" r="7.14762" fill="#1A192B"/>
<circle opacity="0.1" cx="56.7365" cy="57.2296" r="7.14762" fill="#1A192B"/>
</svg>
