<svg width="138" height="65" viewBox="0 0 138 65" fill="none" xmlns="http://www.w3.org/2000/svg">
<g clip-path="url(#clip0)">
<path opacity="0.1" d="M0.789062 25.4344L0.789062 40.0186L15.3732 40.0186L0.789062 25.4344Z" fill="#1A192B"/>
</g>
<g clip-path="url(#clip1)">
<path opacity="0.1" d="M15.3721 15.3718L15.3721 0.787598L0.787904 0.787597L15.3721 15.3718Z" fill="#1A192B"/>
</g>
<g clip-path="url(#clip2)">
<path opacity="0.1" d="M50.083 0.787904L50.083 15.3721L64.6672 15.3721L50.083 0.787904Z" fill="#1A192B"/>
</g>
<g clip-path="url(#clip3)">
<path opacity="0.1" d="M89.3135 15.3718L89.3135 0.787598L74.7293 0.787597L89.3135 15.3718Z" fill="#1A192B"/>
</g>
<g clip-path="url(#clip4)">
<path opacity="0.1" d="M113.959 0.787598L99.375 0.787598L99.375 15.3718L113.959 0.787598Z" fill="#1A192B"/>
</g>
<path opacity="0.1" d="M137.621 40.0192L137.621 25.4351L123.037 25.4351L137.621 40.0192Z" fill="#1A192B"/>
<path opacity="0.1" d="M98.3904 64.6655L112.975 64.6655L112.975 50.0814L98.3904 64.6655Z" fill="#1A192B"/>
<path opacity="0.1" d="M40.0187 50.0815L25.4346 50.0815L25.4346 64.6657L40.0187 50.0815Z" fill="#1A192B"/>
<path opacity="0.1" d="M88.3271 64.6657L88.3271 50.0815L73.743 50.0815L88.3271 64.6657Z" fill="#1A192B"/>
<path opacity="0.1" d="M137.621 64.6657L137.621 50.0815L123.037 50.0815L137.621 64.6657Z" fill="#1A192B"/>
<path opacity="0.1" d="M15.3732 50.0815L0.789062 50.0815L0.789063 64.6657L15.3732 50.0815Z" fill="#1A192B"/>
<circle opacity="0.1" cx="32.5822" cy="7.93521" r="7.14762" fill="#1A192B"/>
<circle opacity="0.1" cx="130.185" cy="7.93521" r="7.14762" fill="#1A192B"/>
<circle opacity="0.1" cx="56.7365" cy="57.2292" r="7.14762" fill="#1A192B"/>
<path d="M40.0187 40.0186H25.4346V25.4344L40.0187 40.0186Z" fill="#FFC299"/>
<path d="M40.0195 40.0186L25.4354 40.0186L32.7274 32.7265L40.0195 40.0186Z" fill="#FF6700"/>
<path d="M64.6672 24.9414L50.083 24.9414L57.3751 32.2335L64.6672 24.9414Z" fill="#FF0072"/>
<path d="M50.0828 39.6279L64.667 39.6279L57.3749 32.3358L50.0828 39.6279Z" fill="#FF99C6"/>
<path d="M82.8148 24.9414L85.9196 32.1765L82.8148 39.4116L79.71 32.1765L82.8148 24.9414Z" fill="#00D7CA"/>
<path d="M79.1659 27.8994L81.6306 33.5682L79.1659 39.237L76.7012 33.5682L79.1659 27.8994Z" fill="#88FFF7"/>
<path d="M106.667 25.9276C102.64 25.9276 99.375 29.1924 99.375 33.2197L106.667 33.2197L106.667 25.9276Z" fill="#86ABFF"/>
<path d="M114.062 33.3217C114.062 37.349 110.797 40.6138 106.77 40.6138L106.77 33.3217L114.062 33.3217Z" fill="#0041D0"/>
</svg>
