<svg width="138" height="65" viewBox="0 0 138 65" fill="none" xmlns="http://www.w3.org/2000/svg">
<g clip-path="url(#clip0)">
<path opacity="0.1" d="M0.788085 25.4349L0.788086 40.019L15.3723 40.019L0.788085 25.4349Z" fill="#1A192B"/>
</g>
<g clip-path="url(#clip1)">
<path opacity="0.1" d="M15.3721 15.3723L15.3721 0.788086L0.787904 0.788085L15.3721 15.3723Z" fill="#1A192B"/>
</g>
<g clip-path="url(#clip2)">
<path opacity="0.1" d="M50.083 0.787904L50.083 15.3721L64.6672 15.3721L50.083 0.787904Z" fill="#1A192B"/>
</g>
<g clip-path="url(#clip3)">
<path opacity="0.1" d="M89.3135 15.3723L89.3135 0.788086L74.7293 0.788085L89.3135 15.3723Z" fill="#1A192B"/>
</g>
<g clip-path="url(#clip4)">
<path opacity="0.1" d="M113.959 0.788086L99.375 0.788086L99.375 15.3723L113.959 0.788086Z" fill="#1A192B"/>
</g>
<path opacity="0.1" d="M137.621 40.0192L137.621 25.4351L123.037 25.4351L137.621 40.0192Z" fill="#1A192B"/>
<path opacity="0.1" d="M98.3895 64.6655L112.974 64.6655L112.974 50.0814L98.3895 64.6655Z" fill="#1A192B"/>
<path opacity="0.1" d="M40.0187 50.0815L25.4346 50.0815L25.4346 64.6657L40.0187 50.0815Z" fill="#1A192B"/>
<path opacity="0.1" d="M88.3271 64.6657L88.3271 50.0815L73.743 50.0815L88.3271 64.6657Z" fill="#1A192B"/>
<path opacity="0.1" d="M137.621 64.6657L137.621 50.0815L123.037 50.0815L137.621 64.6657Z" fill="#1A192B"/>
<path opacity="0.1" d="M15.3723 50.0815L0.788086 50.0815L0.788086 64.6657L15.3723 50.0815Z" fill="#1A192B"/>
<circle opacity="0.1" cx="32.5822" cy="7.9357" r="7.14762" fill="#1A192B"/>
<circle opacity="0.1" cx="130.184" cy="7.9357" r="7.14762" fill="#1A192B"/>
<circle opacity="0.1" cx="56.7365" cy="57.2292" r="7.14762" fill="#1A192B"/>
<path d="M40.0195 40.019L25.4354 40.019L32.7274 32.727L40.0195 40.019Z" fill="#FF6700"/>
<path d="M64.6662 25H50.082L57.3741 32.2921L64.6662 25Z" fill="#FF0072"/>
<path d="M82.8138 24.9419L85.9186 32.177L82.8138 39.4121L79.709 32.177L82.8138 24.9419Z" fill="#00D7CA"/>
<path d="M114.062 33.3222C114.062 37.3495 110.797 40.6143 106.77 40.6143L106.77 33.3222L114.062 33.3222Z" fill="#0041D0"/>
</svg>
